<svg xmlns="http://www.w3.org/2000/svg" fill="none" viewBox="0 0 720 720">
  <!-- <circle cx="360" cy="360" r="360" fill="#886b53" fill-opacity=".3"/> -->
  <circle cx="360" cy="360" r="360" fill="#fff" fill-opacity=".6"/>
  <path fill="#000" fill-opacity=".3" d="m151 10-25 7c15 51 34 78 57 92q35 19 77 13c39-4 82-15 126 2q17 7 37 21l19-7s5-16-3-36c-6-17-24-39-67-55l-8 24q38 16 48 33l3 5-18-8c-43-20-77-21-105-24q-21-2-37-11-15-9-24-43l-25 7q14 44 34 56 9 7 20 10-37 5-64-9-27-15-45-77m136 5q-1 26 7 43l33 3c-8-9-16-23-14-44zm184 21-17 19q18 17 16 35-8-9-20-13c11 13 13 36 14 48l23 2s27-53-16-91M348 142c-27 3-41-4-50 21 0 0 29 43 106 42-5 17-3 30-3 45 0 52-41 96-132 96-46 0-102 9-144 32q-47 24-65 72l12 17h23v95l-28 43 8 125h26l3-101c13-7 43-27 68-58 35-41 62-101 30-174l24-10c26 60 17 113-6 155q64-2 112-9l-7-86 25-2 24 285h26l5-186c21-9 68-41 90-154q5-21 5-35 6-38 6-86l-37-12h115l11-25c-11 0-24-6-24-6l3-12h24l-130-67q-24 8-41 21c-8-6-38-25-79-26m146 346q-23 41-45 63l72 32-32 72 23 11 51-99-68-57zm-235 78-55 2q-20 27-44 47l13 115h26v-99c11-10 38-33 60-65"/>
  <path fill="#886b53" d="m161 0-25 7c15 51 34 78 57 92q35 19 77 13c39-4 82-15 126 2q17 7 37 21l19-7s5-16-3-36c-6-17-24-39-67-55l-8 24q38 16 48 33l3 5-18-8c-43-20-77-21-105-24q-21-2-37-11-15-9-24-43l-25 7q14 44 34 56 9 7 20 10-37 5-64-9-27-15-45-77m136 5q-1 26 7 43l33 3c-8-9-16-23-14-44zm184 21-17 19q18 17 16 35-8-9-20-13c11 13 13 36 14 48l23 2s27-53-16-91M358 132c-27 3-41-4-50 21 0 0 29 43 106 42-5 17-3 30-3 45 0 52-41 96-132 96-46 0-102 9-144 32q-47 24-65 72l12 17h23v95l-28 43 8 125h26l3-101c13-7 43-27 68-58 35-41 62-101 30-174l24-10c26 60 17 113-6 155q64-2 112-9l-7-86 25-2 24 285h26l5-186c21-9 68-41 90-154q5-21 5-35 6-38 6-86l-37-12h115l11-25c-11 0-24-6-24-6l3-12h24l-130-67q-24 8-41 21c-8-6-38-25-79-26m146 346q-23 41-45 63l72 32-32 72 23 11 51-99-68-57zm-235 78-55 2q-20 27-44 47l13 115h26v-99c11-10 38-33 60-65"/>
</svg>
